<svg xmlns="http://www.w3.org/2000/svg" xmlns:xlink="http://www.w3.org/1999/xlink" width="258pt" height="98pt" viewBox="0.00 0.00 258.43 98.00">
<g id="graph0" class="graph" transform="scale(1 1) rotate(0) translate(4 94)">
<polygon fill="white" stroke="none" points="-4,4 -4,-94 254.43,-94 254.43,4 -4,4"></polygon>
<!-- parse -->
<g id="node1" class="node">
<title>parse</title>
<polygon fill="none" stroke="black" points="54,-63 0,-63 0,-27 54,-27 54,-63"></polygon>
<text text-anchor="middle" x="27" y="-40.8" font-family="Times,serif" font-size="14.00">parse</text>
</g>
<!-- transform -->
<g id="node2" class="node">
<title>transform</title>
<polygon fill="none" stroke="black" points="160.43,-90 90,-90 90,-54 160.43,-54 160.43,-90"></polygon>
<text text-anchor="middle" x="125.21" y="-67.8" font-family="Times,serif" font-size="14.00">transform</text>
</g>
<!-- parse&#45;&gt;transform -->
<g id="edge1" class="edge">
<title>parse-&gt;transform</title>
<path fill="none" stroke="black" d="M54.29,-52.38C61.87,-54.51 70.37,-56.89 78.77,-59.25"></path>
<polygon fill="black" stroke="black" points="77.62,-62.56 88.19,-61.89 79.51,-55.82 77.62,-62.56"></polygon>
</g>
<!-- cache -->
<g id="node4" class="node">
<title>cache</title>
<polygon fill="none" stroke="black" points="152.21,-36 98.21,-36 98.21,0 152.21,0 152.21,-36"></polygon>
<text text-anchor="middle" x="125.21" y="-13.8" font-family="Times,serif" font-size="14.00">cache</text>
</g>
<!-- parse&#45;&gt;cache -->
<g id="edge3" class="edge">
<title>parse-&gt;cache</title>
<path fill="none" stroke="black" d="M54.29,-37.62C64.37,-34.79 76.06,-31.51 86.97,-28.45"></path>
<polygon fill="black" stroke="black" points="87.82,-31.85 96.5,-25.78 85.92,-25.11 87.82,-31.85"></polygon>
</g>
<!-- render -->
<g id="node3" class="node">
<title>render</title>
<polygon fill="none" stroke="black" points="250.43,-90 196.43,-90 196.43,-54 250.43,-54 250.43,-90"></polygon>
<text text-anchor="middle" x="223.43" y="-67.8" font-family="Times,serif" font-size="14.00">render</text>
</g>
<!-- transform&#45;&gt;render -->
<g id="edge2" class="edge">
<title>transform-&gt;render</title>
<path fill="none" stroke="black" d="M160.68,-72C168.5,-72 176.85,-72 184.8,-72"></path>
<polygon fill="black" stroke="black" points="184.54,-75.5 194.54,-72 184.54,-68.5 184.54,-75.5"></polygon>
</g>
</g>
</svg>